<svg width="18" height="18" viewBox="0 0 18 18" fill="none" xmlns="http://www.w3.org/2000/svg">
<path d="M3.5787 0.00912245C3.89308 0.0182442 4.24163 0.0366488 4.57324 0.833654C4.79314 1.36423 5.16358 2.341 5.46534 3.13667C5.70015 3.75582 5.89337 4.26532 5.94172 4.3696C6.05221 4.60774 6.12023 4.88253 5.97573 5.2031C5.95869 5.24091 5.9426 5.27707 5.92711 5.31189C5.81119 5.57235 5.7287 5.75771 5.53378 6.0001C5.45362 6.09971 5.37013 6.20895 5.28695 6.31779C5.14065 6.5092 4.99529 6.69938 4.8707 6.83376C4.64972 7.07174 4.42013 7.32844 4.67512 7.80472C4.93025 8.28101 5.82277 9.84749 7.14032 11.1117C8.55678 12.477 9.7885 13.0525 10.4111 13.3433C10.532 13.3998 10.6299 13.4455 10.7018 13.4843C11.1439 13.7224 11.4073 13.6858 11.6623 13.3652C11.9175 13.0445 12.7674 11.9727 13.065 11.4964C13.354 11.0201 13.6514 11.0934 14.0595 11.2582C14.4675 11.4231 16.6435 12.5773 17.0855 12.8155C17.1728 12.8625 17.2546 12.905 17.3303 12.9443C17.6378 13.104 17.8469 13.2125 17.9355 13.3743C18.046 13.5758 18.046 14.5285 17.6805 15.6461C17.3066 16.7637 15.5045 17.8355 14.6884 17.9179C14.6112 17.9258 14.5343 17.9358 14.4552 17.9462C13.7073 18.0441 12.758 18.1685 9.37578 16.727C5.20818 14.9525 2.4571 10.5499 1.90089 9.65976C1.85698 9.58949 1.82675 9.54111 1.81059 9.51765L1.80117 9.50401C1.54812 9.13739 0 6.89449 0 4.58037C0 2.36632 1.00732 1.21363 1.46678 0.687868C1.4959 0.654548 1.52281 0.623747 1.54713 0.595352C1.95508 0.11907 2.43119 0 2.72865 0C3.02625 0 3.32371 -1.76738e-07 3.5787 0.00912245Z" fill="#2B2B2B"/>
</svg>
