<svg width="220" height="34" viewBox="0 0 220 34" fill="none" xmlns="http://www.w3.org/2000/svg">
<path d="M159.329 10.7957L163.161 4.33H160.104L157.083 9.56315H153.815V4.33H151.01C151.01 18.3959 151.01 3.4658 151.01 17.5314H153.815V12.2985H157.097L160.118 17.5314H163.218L159.329 10.7957ZM108.162 30.9394C107.7 30.9394 107.262 30.8671 106.846 30.7222C106.431 30.5773 106.064 30.3539 105.748 30.0511C105.432 29.748 105.179 29.3664 104.989 28.9054C104.799 28.4441 104.704 27.9019 104.704 27.2783V27.0071C104.704 26.4104 104.795 25.8929 104.975 25.4545C105.156 25.0163 105.398 24.6499 105.701 24.3564C106.003 24.0628 106.356 23.8435 106.758 23.6985C107.161 23.5542 107.583 23.4819 108.026 23.4819C109.083 23.4819 109.902 23.7708 110.48 24.3496C111.058 24.9283 111.348 25.7458 111.348 26.8038V27.5629H105.897C105.897 27.9878 105.965 28.3449 106.101 28.6338C106.236 28.9237 106.413 29.1585 106.629 29.3392C106.846 29.52 107.088 29.651 107.355 29.7325C107.622 29.8138 107.89 29.8543 108.162 29.8543C108.704 29.8543 109.122 29.7641 109.416 29.583C109.71 29.4026 109.92 29.1535 110.047 28.8378H111.212C111.14 29.1807 111.011 29.4838 110.826 29.7462C110.641 30.0079 110.415 30.2275 110.148 30.4036C109.882 30.5801 109.578 30.7132 109.239 30.8035C108.901 30.8937 108.541 30.9394 108.162 30.9394ZM108.094 24.5661C107.814 24.5661 107.542 24.6048 107.281 24.6817C107.018 24.7583 106.785 24.8804 106.582 25.0475C106.379 25.215 106.214 25.4251 106.087 25.6782C105.961 25.9315 105.897 26.234 105.897 26.5865H110.223C110.214 26.2161 110.153 25.9019 110.04 25.6445C109.927 25.3868 109.775 25.1789 109.585 25.0207C109.395 24.8625 109.172 24.7472 108.914 24.6749C108.656 24.6026 108.383 24.5661 108.094 24.5661ZM97.0012 23.617H98.1941V29.0411L101.909 23.617H103.103V30.8035H101.909V25.38L98.1941 30.8035H97.0012V23.617ZM89.2987 23.617H90.4923V26.6276H91.4408L94.1261 23.617H95.5357L92.4175 27.0611L95.6717 30.8035H94.153L91.4408 27.6581H90.4923V30.8035H89.2987V23.617ZM84.7827 30.9394C84.3217 30.9394 83.8922 30.8646 83.4946 30.7154C83.0969 30.5662 82.7536 30.3406 82.4638 30.0375C82.1749 29.7344 81.9466 29.3531 81.7794 28.8918C81.6123 28.4308 81.5288 27.8926 81.5288 27.2783V27.0071C81.5288 26.4284 81.6191 25.9176 81.7995 25.4748C81.9806 25.0318 82.22 24.6638 82.5185 24.3703C82.8167 24.0761 83.1624 23.8546 83.5557 23.7056C83.9491 23.5564 84.3578 23.4819 84.7827 23.4819C85.2075 23.4819 85.5894 23.5403 85.9284 23.6578C86.2676 23.7755 86.5612 23.938 86.8096 24.1462C87.0586 24.3539 87.2619 24.598 87.4201 24.8782C87.5783 25.1581 87.6936 25.4613 87.7659 25.7866H86.5457C86.4731 25.6151 86.3897 25.4545 86.2945 25.3052C86.1997 25.1563 86.0822 25.0275 85.942 24.9187C85.802 24.8102 85.637 24.7243 85.447 24.6613C85.2573 24.598 85.0357 24.5661 84.7827 24.5661C84.5204 24.5661 84.2676 24.6137 84.0235 24.7089C83.7791 24.8037 83.5625 24.9484 83.3725 25.1427C83.1831 25.337 83.0314 25.5879 82.9183 25.8954C82.8052 26.2028 82.7487 26.573 82.7487 27.0071V27.2783C82.7487 27.7393 82.8052 28.1348 82.9183 28.4648C83.0314 28.7945 83.1831 29.0611 83.3725 29.2645C83.5625 29.4678 83.7791 29.617 84.0235 29.7122C84.2676 29.807 84.5204 29.8543 84.7827 29.8543C85.2254 29.8543 85.5987 29.7461 85.9012 29.5289C86.2043 29.3123 86.4187 29.0136 86.5457 28.6338H87.7659C87.5938 29.3479 87.2412 29.9111 86.7082 30.3221C86.1746 30.7333 85.5329 30.9394 84.7827 30.9394ZM73.7584 23.617H74.8701V24.9734C75.1142 24.4938 75.4556 24.1255 75.894 23.8679C76.3322 23.6105 76.8407 23.4819 77.4194 23.4819C78.3235 23.4819 79.0462 23.7776 79.5888 24.3703C80.131 24.9619 80.4023 25.8407 80.4023 27.0071V27.2783C80.4023 27.8926 80.3303 28.4284 80.1854 28.885C80.0405 29.3414 79.8375 29.7211 79.5752 30.0242C79.3132 30.3267 78.9989 30.5547 78.6325 30.7086C78.2667 30.8619 77.8622 30.9394 77.4194 30.9394C76.8046 30.9394 76.2914 30.8035 75.8804 30.5328C75.4689 30.2609 75.1593 29.9223 74.9513 29.5156V33.5154H73.7584V23.617ZM77.1482 29.8815C77.4371 29.8815 77.7087 29.8252 77.9614 29.7122C78.2148 29.5994 78.4338 29.4338 78.6192 29.2172C78.8046 29 78.9495 28.729 79.053 28.404C79.1571 28.0783 79.209 27.7032 79.209 27.2783V27.0071C79.209 26.6184 79.1571 26.2702 79.053 25.963C78.9495 25.6556 78.8046 25.3957 78.6192 25.1835C78.4338 24.9712 78.2148 24.8102 77.9614 24.7021C77.7087 24.5936 77.4371 24.539 77.1482 24.539C76.8225 24.539 76.5243 24.5912 76.2531 24.695C75.9821 24.7991 75.7513 24.944 75.5619 25.1294C75.3719 25.3145 75.2226 25.5336 75.1142 25.7866C75.006 26.04 74.9513 26.3113 74.9513 26.6001V27.685C74.9513 28.0106 75.006 28.3088 75.1142 28.5798C75.2226 28.851 75.3719 29.0812 75.5619 29.2712C75.7513 29.461 75.9821 29.6105 76.2531 29.719C76.5243 29.8271 76.8225 29.8815 77.1482 29.8815ZM68.9711 30.9394C68.5098 30.9394 68.0717 30.8671 67.6555 30.7222C67.2402 30.5773 66.8741 30.3539 66.5577 30.0511C66.2413 29.748 65.9879 29.3664 65.7982 28.9054C65.6082 28.4441 65.5133 27.9019 65.5133 27.2783V27.0071C65.5133 26.4104 65.6042 25.8929 65.7846 25.4545C65.9657 25.0163 66.2073 24.6499 66.5098 24.3564C66.8129 24.0628 67.1654 23.8435 67.5674 23.6985C67.9697 23.5542 68.3924 23.4819 68.8351 23.4819C69.8931 23.4819 70.7109 23.7708 71.2893 24.3496C71.8681 24.9283 72.1573 25.7458 72.1573 26.8038V27.5629H66.7066C66.7066 27.9878 66.7743 28.3449 66.9102 28.6338C67.0459 28.9237 67.2217 29.1585 67.4389 29.3392C67.6555 29.52 67.8974 29.651 68.164 29.7325C68.431 29.8138 68.6998 29.8543 68.9711 29.8543C69.5137 29.8543 69.9314 29.7641 70.2249 29.583C70.5191 29.4026 70.7292 29.1535 70.8555 28.8378H72.0219C71.9493 29.1807 71.8208 29.4838 71.6354 29.7462C71.4497 30.0079 71.2242 30.2275 70.9572 30.4036C70.6906 30.5801 70.3881 30.7132 70.0488 30.8035C69.7099 30.8937 69.3505 30.9394 68.9711 30.9394ZM68.9031 24.5661C68.6229 24.5661 68.3519 24.6048 68.0896 24.6817C67.8276 24.7583 67.5946 24.8804 67.3916 25.0475C67.1877 25.215 67.023 25.4251 66.8963 25.6782C66.7699 25.9315 66.7066 26.234 66.7066 26.5865H71.032C71.023 26.2161 70.9618 25.9019 70.8488 25.6445C70.7357 25.3868 70.5843 25.1789 70.3949 25.0207C70.2048 24.8625 69.9811 24.7472 69.7234 24.6749C69.4658 24.6026 69.1923 24.5661 68.9031 24.5661ZM61.2139 24.6749H58.7597V23.617H64.8617V24.6749H62.4072V30.8035H61.2139V24.6749ZM55.0572 30.9394C54.5966 30.9394 54.1671 30.8646 53.7694 30.7154C53.3718 30.5662 53.0282 30.3406 52.7384 30.0375C52.4495 29.7344 52.2215 29.3531 52.054 28.8918C51.8868 28.4308 51.8034 27.8926 51.8034 27.2783V27.0071C51.8034 26.4284 51.8936 25.9176 52.0744 25.4748C52.2551 25.0318 52.4946 24.6638 52.7931 24.3703C53.0915 24.0761 53.437 23.8546 53.8303 23.7056C54.2236 23.5564 54.6327 23.4819 55.0572 23.4819C55.4821 23.4819 55.8643 23.5403 56.2029 23.6578C56.5422 23.7755 56.8357 23.938 57.0844 24.1462C57.3332 24.3539 57.5365 24.598 57.6944 24.8782C57.8529 25.1581 57.9678 25.4613 58.0404 25.7866H56.82C56.7477 25.6151 56.6642 25.4545 56.5694 25.3052C56.4742 25.1563 56.3568 25.0275 56.2168 24.9187C56.0766 24.8102 55.9116 24.7243 55.7215 24.6613C55.5318 24.598 55.3106 24.5661 55.0572 24.5661C54.7952 24.5661 54.5422 24.6137 54.2981 24.7089C54.054 24.8037 53.8374 24.9484 53.6474 25.1427C53.4577 25.337 53.306 25.5879 53.1929 25.8954C53.0798 26.2028 53.0236 26.573 53.0236 27.0071V27.2783C53.0236 27.7393 53.0798 28.1348 53.1929 28.4648C53.306 28.7945 53.4577 29.0611 53.6474 29.2645C53.8374 29.4678 54.054 29.617 54.2981 29.7122C54.5422 29.807 54.7952 29.8543 55.0572 29.8543C55.5 29.8543 55.8732 29.7461 56.176 29.5289C56.4792 29.3123 56.6936 29.0136 56.82 28.6338H58.0404C57.8683 29.3479 57.5161 29.9111 56.9828 30.3221C56.4495 30.7333 55.8074 30.9394 55.0572 30.9394ZM46.7581 30.9394C46.3605 30.9394 46.0101 30.8826 45.707 30.7695C45.4045 30.6564 45.149 30.501 44.9413 30.302C44.7334 30.1027 44.5752 29.8676 44.4667 29.5969C44.358 29.3259 44.3039 29.0272 44.3039 28.7018C44.3039 27.9878 44.514 27.4727 44.9345 27.1563C45.355 26.8396 45.9582 26.6817 46.7445 26.6817H49.0767V26.1932C49.0767 25.5787 48.9389 25.1538 48.663 24.9187C48.3874 24.6839 47.9739 24.5661 47.4224 24.5661C46.9073 24.5661 46.5319 24.6638 46.2974 24.8575C46.0623 25.0519 45.931 25.2712 45.9038 25.5159H44.7105C44.7291 25.2261 44.8079 24.9573 44.9478 24.7089C45.0881 24.4599 45.2775 24.2454 45.5176 24.0644C45.757 23.8839 46.0441 23.7415 46.3781 23.6377C46.7127 23.5335 47.0835 23.4819 47.4904 23.4819C48.3398 23.4819 49.0155 23.6831 49.5173 24.0851C50.0194 24.4874 50.27 25.1449 50.27 26.0579V28.9731C50.27 29.3531 50.2721 29.685 50.2767 29.9695C50.2811 30.2541 50.3015 30.5328 50.3379 30.8035H49.2936C49.2667 30.5955 49.2485 30.399 49.2395 30.2136C49.2305 30.0286 49.2259 29.8181 49.2259 29.583C49.0362 29.9627 48.7288 30.2838 48.3039 30.5461C47.8788 30.8078 47.364 30.9394 46.7581 30.9394ZM47.0158 29.8543C47.296 29.8543 47.5602 29.816 47.8089 29.7397C48.0577 29.6621 48.277 29.549 48.4664 29.4004C48.6565 29.2512 48.8057 29.0679 48.9135 28.851C49.0223 28.6338 49.0767 28.3811 49.0767 28.0919V27.6037H46.9478C46.5051 27.6037 46.1572 27.6921 45.9038 27.8679C45.6507 28.0446 45.5244 28.3221 45.5244 28.7018C45.5244 29.0361 45.6439 29.3123 45.8837 29.5289C46.1232 29.7461 46.5001 29.8543 47.0158 29.8543ZM35.0417 23.617H36.3162L38.8789 28.0919L41.4416 23.617H42.6351V30.8035H41.4416V25.5833L39.3127 29.2444H38.3635L36.235 25.5833V30.8035H35.0417V23.617ZM29.7316 16.2831L26.2729 10.2923H19.388L22.8306 4.3297H15.9216L11.9098 11.278L14.7994 16.2831H29.7316ZM9.02831 30.6922H15.9457L19.388 24.7302L22.8306 30.6922L26.285 24.7092L22.2729 17.7609H16.4944L9.02831 30.6922ZM6.901 5.55819L3.44201 11.5486L6.88463 17.5113H0L3.45436 23.4943H11.4779L14.3671 18.4898L6.901 5.55819ZM218.7 10.7932C219.565 11.4881 220 12.4533 220 13.5644C220 16.1407 217.966 17.531 215.548 17.531H207.061V4.3297H215.53C217.857 4.3297 219.826 5.67993 219.826 8.15792C219.826 9.18156 219.47 10.1103 218.7 10.7932ZM209.866 6.99555V9.63205H215.444C216.415 9.63205 217.004 9.27703 217.004 8.24474C217.004 7.23253 216.35 6.99555 215.444 6.99555H209.866ZM209.866 14.8652H215.461C216.43 14.8652 217.109 14.5593 217.109 13.4949C217.109 12.4481 216.385 12.2114 215.461 12.2114H209.866V14.8652ZM186.496 4.33V17.531H183.691V7.01718H177.485V17.531H174.68V7.01718H168.474V17.531H165.669V4.33H186.496ZM148.481 17.531H146.273L145.367 14.7586H137.972L137.067 17.531H134.156L138.561 4.3297H144.792L149.219 17.531H148.481ZM140.508 6.99555L138.843 12.0927H144.497L142.831 6.99555H140.508ZM114.768 17.531V4.32939H117.573V13.2715L126.072 4.32939H128.884V17.531H126.079V8.33095L117.44 17.531H114.768ZM124.309 2.60715C123.677 3.12561 122.817 3.42068 121.802 3.42068C120.786 3.42068 119.926 3.12561 119.294 2.60715C118.644 2.07447 118.242 1.31346 118.162 0.398581L118.127 0H120.305L120.349 0.317011C120.398 0.667082 120.553 0.94794 120.792 1.13796C121.038 1.33323 121.382 1.44138 121.802 1.44138C122.221 1.44138 122.565 1.33323 122.81 1.13796C123.05 0.94794 123.205 0.666773 123.254 0.317011L123.298 0H125.476L125.441 0.398581C125.361 1.31346 124.958 2.07447 124.309 2.60715ZM97.5978 9.3549H102.811C104.158 9.3549 105.229 9.76986 105.983 10.4598C106.798 11.2054 107.228 12.2565 107.228 13.443C107.228 14.6294 106.798 15.6806 105.983 16.4261C105.23 17.1161 104.159 17.5307 102.811 17.5307H94.7932V4.3297H97.5978V9.3549ZM108.927 16.995V4.3297H111.732V17.5307H108.927V16.995ZM97.5978 14.8303H102.759C103.312 14.8303 103.718 14.7101 103.971 14.4777C104.213 14.2562 104.337 13.903 104.337 13.4257C104.337 12.9511 104.215 12.6029 103.976 12.386C103.723 12.1558 103.315 12.0381 102.759 12.0381H97.5978V14.8303ZM89.0083 9.56284V4.3297H91.8125V17.5307H89.0083V12.2979H80.516V17.5307H77.7111V4.3297H80.516V9.56284H89.0083ZM71.3771 10.7957L75.2087 4.3297H72.1523L69.1308 9.56284H65.8628C65.8628 7.81836 65.8628 6.07418 65.8628 4.3297H63.1534C63.1534 6.07418 63.1534 7.81836 63.1534 9.56284H59.8853L56.8638 4.3297H53.8074L57.6391 10.7957L53.7503 17.531H56.8499L59.8711 12.2982H63.1534C63.1534 14.0424 63.1534 15.7869 63.1534 17.531H65.8628C65.8628 15.7869 65.8628 14.0424 65.8628 12.2982H69.1451L72.1662 17.531H75.2659L71.3771 10.7957ZM41.8126 5.81618C42.9852 4.77709 44.5313 4.15605 46.2508 4.15605C48.1318 4.15605 49.8043 4.8976 51.0078 6.11805C52.2085 7.33573 52.9383 9.02707 52.9383 10.9304C52.9383 12.8337 52.2085 14.525 51.0078 15.7424C49.8043 16.9625 48.1318 17.7041 46.2508 17.7041C44.5313 17.7041 42.9852 17.0833 41.8126 16.0443C40.7389 15.0926 39.9813 13.7921 39.6937 12.2982H37.8086V17.531H35.0043V4.3297H37.8086V9.56284H39.6937C39.9813 8.06894 40.7389 6.76814 41.8126 5.81618ZM43.5556 13.8171C44.2344 14.5337 45.1814 14.969 46.2508 14.969C47.3205 14.969 48.2675 14.5337 48.9463 13.8171C49.631 13.0938 50.0472 12.0801 50.0472 10.9304C50.0472 9.78067 49.631 8.76691 48.9463 8.0436C48.2675 7.32677 47.3201 6.89143 46.2508 6.89143C45.1817 6.89143 44.2347 7.32677 43.5556 8.0436C42.8709 8.76691 42.4547 9.78067 42.4547 10.9304C42.4547 12.0801 42.8706 13.0938 43.5556 13.8171ZM189.9 17.531V4.32939H192.704V13.2715L201.251 4.32939H204.015V17.531H201.21V8.33095L192.572 17.531H189.9Z" fill="#7F0000"/>
</svg>
