<svg width="24" height="24" viewBox="0 0 24 24" fill="none" xmlns="http://www.w3.org/2000/svg">
<path fill-rule="evenodd" clip-rule="evenodd" d="M2 0C0.895431 0 0 0.89543 0 2V22C0 23.1046 0.89543 24 2 24H22C23.1046 24 24 23.1046 24 22V2C24 0.895431 23.1046 0 22 0H2ZM5.8467 7.6013H2.35799C2.30035 7.60083 2.24347 7.61432 2.19228 7.64059C2.14109 7.66687 2.09714 7.70514 2.06425 7.75207C2.03136 7.79901 2.01052 7.8532 2.00353 7.90993C1.99655 7.96667 2.00364 8.02423 2.02418 8.07764C4.21836 14.7181 8.11417 17.0958 9.54304 17.7659C9.86283 17.9141 10.2118 17.9899 10.5648 17.9879H13.048C13.2126 17.991 13.3727 17.9352 13.4991 17.8306C13.6255 17.7261 13.7096 17.5798 13.736 17.4188C13.7706 17.1738 13.796 16.9603 13.8184 16.7723C13.8933 16.1424 13.9343 15.7975 14.1757 15.5053C14.211 15.4738 14.2525 15.4498 14.2976 15.4348C14.3427 15.4199 14.3904 15.4143 14.4378 15.4185C14.4852 15.4227 14.5312 15.4365 14.5729 15.459C14.6147 15.4816 14.6513 15.5125 14.6805 15.5497L17.2247 17.6489C17.324 17.7582 17.4451 17.8458 17.5804 17.9063C17.7156 17.9668 17.8621 17.9987 18.0104 18.0001H21.6213C21.6934 18.001 21.7642 17.9813 21.8254 17.9434C21.8865 17.9054 21.9352 17.8507 21.9657 17.7859C21.9963 17.7211 22.0073 17.6489 21.9974 17.5781C21.9876 17.5072 21.9573 17.4407 21.9103 17.3865L19.0363 13.9915C18.8901 13.8231 18.8097 13.6082 18.8097 13.386C18.8097 13.1638 18.8901 12.9489 19.0363 12.7805C19.8871 11.7794 21.5154 9.70446 21.8167 8.08975C21.8296 8.03013 21.8287 7.96839 21.8141 7.90915C21.7996 7.84991 21.7716 7.79472 21.7325 7.74771C21.6933 7.70071 21.6439 7.66312 21.588 7.63776C21.532 7.6124 21.4711 7.59994 21.4096 7.6013H18.214C18.0679 7.60307 17.9259 7.64879 17.8067 7.73242C17.6874 7.81604 17.5967 7.93362 17.5463 8.06957C16.6955 10.3302 15.8366 12.4979 14.3792 12.8047C14.3328 12.813 14.2851 12.8111 14.2396 12.7991C14.194 12.787 14.1517 12.7652 14.1156 12.7352C14.0794 12.7052 14.0504 12.6676 14.0306 12.6252C14.0107 12.5828 14.0005 12.5366 14.0006 12.4898L13.7075 8.04938C13.7068 7.90763 13.665 7.76908 13.587 7.65026C13.509 7.53144 13.3983 7.43737 13.2679 7.37928C12.6468 7.11549 11.976 6.98658 11.3005 7.00121C10.6251 7.01583 9.96057 7.17364 9.35171 7.46405C9.3154 7.48109 9.28341 7.50598 9.25809 7.53689C9.23277 7.56781 9.21476 7.60396 9.20539 7.64269C9.19601 7.68142 9.19552 7.72174 9.20393 7.76068C9.21234 7.79963 9.22946 7.83621 9.25401 7.86773C10.5648 9.39767 9.88906 11.5533 9.52268 12.4414C9.50484 12.4784 9.47751 12.5101 9.44344 12.5333C9.40936 12.5565 9.36973 12.5705 9.32852 12.5738C9.2873 12.577 9.24594 12.5695 9.20857 12.5519C9.17121 12.5344 9.13914 12.5074 9.1156 12.4737C7.92092 11.0573 6.92661 9.48598 6.16016 7.80314C6.13248 7.74357 6.08834 7.69299 6.03287 7.65727C5.97739 7.62155 5.91285 7.60214 5.8467 7.6013Z" fill="black"/>
</svg>
